<svg width="761" height="700.71023" xmlns="http://www.w3.org/2000/svg" data-name="Layer 1">
 <title>link</title>

 <g>
  <title>Layer 1</title>
  <path id="svg_1" fill="#ffffff" d="m41.634,248.92319c12.42842,23.049 38.806,32.94351 38.806,32.94351s6.22712,-27.47543 -6.2013,-50.52448s-38.806,-32.94351 -38.806,-32.94351s-6.22711,27.4754 6.2013,50.52448z"/>
  <path id="svg_2" fill="#00b0ff" d="m50.17653,241.34022c22.43841,13.49969 31.08016,40.3138 31.08016,40.3138s-27.73812,4.92678 -50.17653,-8.57291s-31.08016,-40.3138 -31.08016,-40.3138s27.73811,-4.92679 50.17653,8.57291z"/>
  <path id="svg_3" fill="#3f3d56" d="m761,623.71022c0,24.30053 -57.75527,77 -129,77s-129,-52.69947 -129,-77s57.75527,-11 129,-11s129,-13.30053 129,11z"/>
  <path id="svg_4" opacity="0.1" d="m761,623.71022c0,24.30053 -57.75527,77 -129,77s-129,-52.69947 -129,-77s57.75527,-11 129,-11s129,-13.30053 129,11z"/>
  <ellipse id="svg_5" fill="#3f3d56" ry="44" rx="129" cy="623.71023" cx="632"/>
  <rect id="svg_6" fill="#00b0ff" height="234" width="410" y="301.71023" x="76"/>
  <ellipse id="svg_7" fill="#2f2e41" ry="37" rx="39.5" cy="40.71023" cx="677.5"/>
  <path id="svg_8" fill="#ffb8b8" d="m562.5,271.21022l-10,14s-48,10 -30,25s44,-14 44,-14l14,-18l-18,-7z"/>
  <path id="svg_9" fill="#00b0ff" d="m614.5,112.21022s-13,0 -16,18s-6,78 -6,78s-42,55 -35,62s15,20 20,18s48,-61 48,-61l-11,-115z"/>
  <path id="svg_10" opacity="0.1" d="m614.5,112.21022s-13,0 -16,18s-6,78 -6,78s-42,55 -35,62s15,20 20,18s48,-61 48,-61l-11,-115z"/>
  <path id="svg_11" fill="#ffb8b8" d="m654.5,61.21022s-1,39 -13,41s-8,15 -8,15s39,23 65,0l5,-12s-18,-13 -10,-31l-39,-13z"/>
  <path id="svg_12" fill="#2f2e41" d="m587.5,301.21022s-59,110 -37,144s55,104 60,104s33,-14 31,-23s-32,-76 -40,-82s-4,-22 -3,-23s34,-54 34,-54s-1,84 3,97s-1,106 4,110s28,11 32,5s16,-97 8,-118l15,-144l-107,-16z"/>
  <path id="svg_13" fill="#2f2e41" d="m641.5,568.21022l-25,46s-36,26 -11,30s40,-6 40,-6l22,-16l0,-46l-26,-8z"/>
  <path id="svg_14" fill="#2f2e41" d="m607.5,542.21022l13,31s5,13 0,16s-19,21 -10,23a29.29892,29.29892 0 0 0 5.49537,0.5463a55.56588,55.56588 0 0 0 40.39769,-16.43935l8.10694,-8.10695s-27.77007,-63.94827 -27.385,-63.47413s-29.615,17.47413 -29.615,17.47413z"/>
  <circle id="svg_15" fill="#ffb8b8" r="34" cy="51.21023" cx="679.5"/>
  <path id="svg_16" fill="#00b0ff" d="m699,98.71022l-10.5,10.5s-32,12 -47,0c0,0 5.5,-11.5 5.5,-10.5s-43.5,7.5 -47.5,25.5s3,49 3,49s-28,132 -17,135s114,28 113,9s8,-97 8,-97l35,-67s-5,-22 -17,-29s-25.5,-25.5 -25.5,-25.5z"/>
  <path id="svg_17" fill="#ffb8b8" d="m654.5,294.21022l-13,8s-50,34 -24,40s41,-24 41,-24l10,-12l-14,-12z"/>
  <path id="svg_18" opacity="0.1" d="m728.5,147.21022l9,9s6,84 -6,101s-67,63 -70,60s-22,-18 -18,-20s57.18287,-57.56942 57.18287,-57.56942l-4.18287,-77.43058l32,-15z"/>
  <path id="svg_19" fill="#00b0ff" d="m732.5,144.21022l9,9s6,84 -6,101s-67,63 -70,60s-22,-18 -18,-20s57.18287,-57.56942 57.18287,-57.56942l-4.18287,-77.43058l32,-15z"/>
  <path id="svg_20" fill="#2f2e41" d="m665.43835,2.91535s-11.55751,-4.20273 -27.31774,4.72807l8.40545,2.10136s-12.60818,1.05069 -14.18421,17.8616l5.77876,0s-3.67739,14.70955 0,18.91228l2.364,-4.4654l6.82944,13.65887l1.576,-6.82943l3.15205,1.05068l2.10136,-11.03216s5.25341,7.88011 9.45614,8.40545l0,-6.82943s11.55751,13.13353 15.23489,12.60819l-5.25341,-7.35478l7.35478,1.576l-3.15205,-5.25341l18.91228,5.25341l-4.20273,-5.25341l13.13353,4.20273l6.30409,2.62671s8.9308,-20.48831 -3.67738,-34.67252s-30.99508,-17.33623 -42.81525,-11.29481z"/>
  <path id="svg_21" fill="#ffffff" d="m335.09811,428.7927q-1.25967,0.794 -2.60744,1.47382a30.87649,30.87649 0 0 1 -41.42627,-13.64933l-6.65209,-13.19072l4.465,-2.251l6.65209,13.19073a25.84163,25.84163 0 1 0 46.14646,-23.27365l-27.93638,-55.39357a25.84162,25.84162 0 1 0 -46.14648,23.27362l9.89088,19.612l-4.465,2.251l-9.89088,-19.61197a30.84193,30.84193 0 0 1 55.07639,-27.7757l27.93637,55.39356a30.84665,30.84665 0 0 1 -11.04267,39.95121l0.00002,0z"/>
  <path id="svg_22" fill="#ffffff" d="m337.8,497.1646q-1.24231,0.783 -2.57748,1.45725a30.87615,30.87615 0 0 1 -41.42627,-13.64933l-27.93638,-55.39356a30.84193,30.84193 0 0 1 55.07639,-27.77571l7.33862,14.55186l-4.465,2.251l-7.33863,-14.55188a25.84162,25.84162 0 1 0 -46.14645,23.27365l27.93637,55.39356a25.84163,25.84163 0 1 0 46.14646,-23.27365l-9.61614,-19.0671l4.465,-2.251l9.61614,19.0671a30.88584,30.88584 0 0 1 -11.07263,39.96781z"/>
  <path id="svg_23" fill="#00b0ff" d="m537,537.71022l-462,0l0,-257l462,0l0,257zm-460,-2l458,0l0,-253l-458,0l0,253z"/>
 </g>
</svg>